<svg height="100%" version="1.1" width="100%" xmlns="http://www.w3.org/2000/svg" preserveAspectRatio="xMidYMid meet" viewBox="0 0 600 442" xmlns:xlink="http://www.w3.org/1999/xlink"><desc>Created with Snap</desc><defs/><g id="root" contentwidth="264.3876543209876" contentheight="122">
          <rect class="background" height="2000%" width="2000%" y="-1000%" x="-1000%" style="" fill="#fefcfb"/>
          <rect class="watermarklayer" height="100%" width="100%" y="0" x="0" style="" fill="none"/>
          <g class="content" id="content" transform="matrix(1,0,0,1,236.2938,251.7)">
            <g class="icon" transform="matrix(1,0,0,1,180,-40)" style="mask: url(#mask);">
            <svg height="122" version="1.1" width="240.98765432098764" xmlns="http://www.w3.org/2000/svg" x="-248.48765432098764" y="-51.7"><desc>Created with Snap</desc><defs/><svg viewBox="0 0 160 81" version="1.1" xmlns="http://www.w3.org/2000/svg" xmlns:xlink="http://www.w3.org/1999/xlink">
    <g id="20211120603" stroke="none" stroke-width="1" fill="none" fill-rule="evenodd">
        <g id="模版" transform="translate(-178.000000, -177.000000)" fill="#dc171e" style="">
            <path d="M194.914295,257.671 C181.263295,248.304 173.681295,232.266 180.610295,216.242 C185.654295,204.706 195.884295,196.297 206.718295,190.452 C238.797295,173.734 280.741295,172.957 314.158295,186.126 C322.565295,189.611 330.708295,194.068 337.491295,200.154 C307.086295,181.958 268.287295,180.075 234.400295,187.547 C217.806295,191.641 200.647295,198.567 189.413295,211.749 C176.645295,227.153 181.380295,244.597 194.914295,257.671" id="Fill-1"/>
        </g>
    </g>
<desc>Created with Snap</desc><defs/></svg></svg></g>
            <g id="icon_name_and_slogan_gap">
            </g>
            <g class="name_and_slogan" id="name_and_slogan_id">
              <g class="name"><g id="nameDefaultGroup"><path d="M22 -29.6Q24.5 -33.1 26.3 -34.7Q28.2 -36.4 30.5 -36.4Q33.5 -36.4 36 -34.1Q38.4 -31.9 39 -28.7Q39.2 -27.4 39.2 -25.1L39.1 -20.9L39.5 -20.8L40 -22.2Q40.9 -24.6 41.6 -26.2Q42.4 -27.8 43.6 -29.5Q46 -33 48.1 -34.7Q50.2 -36.4 52.5 -36.4Q55.7 -36.4 58.5 -34.1Q61.3 -31.8 61.8 -28.7Q62.1 -27.4 62.1 -25.1Q62.1 -23.4 61.9 -19.4Q61.8 -14.9 61.8 -12.8Q61.8 -9 62.1 -7.3Q63.1 -3.8 63.1 -2.4Q63.1 -1.4 62.6 -0.7Q62.1 -0.1 60.9 0.4Q57.8 1.5 54.7 1.5Q50.5 1.5 49.9 -2.9Q49.3 -5.6 49.3 -10.8Q49.3 -12.2 49.5 -15.5Q49.6 -18.3 49.9 -20.6Q50.2 -23.1 50.2 -24.6Q50.2 -27.2 48.9 -27.2Q47.3 -27.2 43.9 -20Q42.4 -16.8 41.2 -13.3Q40.1 -9.8 39.7 -6.9Q39.6 -6.5 39.6 -5.7L39.7 -3.6Q39.7 -0.4 37.9 0.4Q36.3 1.2 35 1.3Q33.7 1.5 31.4 1.5Q29.7 1.5 29 0.9Q28.3 0.3 27.9 -1.2Q27.5 -2.7 27.5 -6.3Q27.5 -11.2 28 -15.5Q28.2 -17.4 28.3 -18.2Q28.4 -19 28.5 -20.8Q28.7 -22.5 28.7 -23.7Q28.7 -27.2 27.1 -27.2Q25.7 -27.2 22 -19.6Q20.5 -16.3 19.3 -12.8Q18.1 -9.3 17.7 -6.9Q17.6 -6.5 17.6 -5.7L17.7 -3.6Q17.7 -0.6 15.8 0.3Q13 1.5 8.6 1.5Q6.9 1.5 6.2 0.9Q5.5 0.3 5.2 -1.2Q5 -1.8 5 -3.3Q5 -4.8 5.2 -8.2Q5.3 -11.6 5.4 -13.8Q5.9 -22.2 5.9 -27.1Q5.9 -30.1 5.7 -31Q5.6 -31.3 5.6 -31.8Q5.6 -35.1 12.7 -35.5Q15.4 -35.6 16.6 -34Q17.8 -32.5 17.8 -30Q17.8 -27 17.6 -24.9Q17.3 -22.2 17.2 -20.7L17.6 -20.6Q19.4 -25.4 22 -29.6M77.7 1.5Q75.1 1.6 73.8 0.4Q72.5 -0.9 72.3 -2.9Q72 -4.7 72 -9.5Q72 -13.2 72.4 -20.3Q72.5 -23.5 72.9 -28.9L73 -31.2Q73.4 -37.8 73.4 -42Q73.4 -42.5 72.6 -42.9Q71.8 -43.3 70.8 -43.5Q70 -43.7 69.6 -43.8Q69.1 -44.2 69.1 -45.1Q69.1 -47.2 70.8 -48.3Q72.2 -49.2 75.2 -50.1Q78.3 -51 80.4 -51Q82.8 -51 84 -49.3Q85.1 -47.7 85.1 -45.2Q85.1 -38.3 84.5 -25.1Q84.3 -17.9 84.3 -15.2Q84.3 -9.3 84.8 -7.3Q84.9 -7.1 85.1 -5.8Q85.3 -4.6 85.3 -3.5Q85.3 -1.1 84.1 -0.2Q82.8 0.6 81.8 0.9Q80.8 1.3 77.7 1.5M96 -43.6Q96 -45 97 -46.9Q98.1 -48.9 99.7 -50.3Q101.3 -51.7 102.7 -51.7Q104.3 -51.7 106.4 -51.1Q108.4 -50.5 109.8 -49.5Q111.2 -48.5 111.2 -47.2Q111.2 -45.8 110.1 -43.9Q109 -42 107.4 -40.6Q105.8 -39.3 104.3 -39.3Q101.4 -39.3 98.7 -40.5Q96 -41.6 96 -43.6zM108.9 -21.2Q108.8 -19.7 108.6 -16.8L108.6 -14.6Q108.6 -12.3 108.6 -10.3Q108.7 -8.3 108.8 -7.3Q108.9 -6.7 109 -5.5Q109.1 -4.4 109.1 -3.6Q109.1 -1.4 107.6 -0.1Q106 1.1 101.7 1.5Q99.1 1.7 97.9 0.4Q96.7 -0.9 96.5 -3Q97.4 -16.2 97.4 -30.7Q97.4 -32.3 97.7 -33Q97.9 -33.6 98.9 -34.1Q99.8 -34.6 101.1 -34.7Q102.4 -34.8 104.3 -34.8Q107 -34.8 108.1 -33.2Q109.3 -31.7 109.3 -29.1Q109.1 -24.9 109 -22.8L108.9 -21.2M136.6 -29.2Q133.4 -29.2 131.8 -25.2Q130.3 -21.1 130.3 -15.7Q130.3 -11.1 132.5 -8.6Q134.7 -6 139.1 -6Q140.2 -6 141.6 -6.6Q143 -7.1 145 -8.1Q147.2 -9.1 147.7 -9.1Q148.3 -9.1 149.1 -7.9Q149.9 -6.6 149.9 -5Q149.9 -3.7 149 -2.7Q146.8 -0.6 142.8 0.6Q138.8 1.9 135 1.9Q127 1.9 122.3 -2.4Q117.7 -6.7 117.7 -14.6Q117.7 -19.7 119.3 -24Q120.8 -28.4 123.6 -31Q126.5 -33.7 130.2 -35Q133.8 -36.4 137.8 -36.4Q141.6 -36.4 144.7 -35.8Q147.8 -35.1 149.4 -34.4Q150.1 -34.1 150.1 -32.8Q150.1 -30.8 148.9 -28.7Q147.8 -26.6 146.5 -27Q140.1 -29.2 136.6 -29.2M170.8 -3.6Q170.8 -2.2 170.3 -1.2Q169.8 -0.2 168.8 0.3Q166 1.5 161.6 1.5Q159.9 1.5 159.2 0.9Q158.5 0.3 158.1 -1.2Q157.8 -2.4 157.8 -5.8Q157.8 -9.9 158.4 -20.3Q158.7 -24.3 158.9 -31.2Q159.2 -38.2 159.2 -42Q159.2 -46.4 159.8 -48.2Q160.3 -50 161.4 -50.3Q162.4 -50.6 165.7 -51Q168.3 -51.2 169.6 -49.5Q170.9 -47.9 170.9 -45.2L170.6 -35L170.4 -25.1L170.4 -19.8Q170.4 -10.2 170.6 -7.3Q170.8 -5 170.8 -3.6zM188 -12L189.6 -10.7Q192.5 -8.4 194.2 -6.7Q195.9 -5 195.9 -3.6Q195.9 -3.2 195.7 -2.8Q194.8 -1.1 193.1 0.1Q191.5 1.2 188.4 1.4Q186.3 1.5 183.4 -0.8Q180.5 -3.1 177.8 -6.3Q175.6 -8.9 173.6 -11.9Q171.6 -14.9 171.6 -16.1Q171.6 -16.8 179.3 -25.8Q184.5 -32 185.5 -33.5Q186.3 -34.6 188.6 -35Q190.9 -35.5 193 -35.5Q195 -35.5 195 -33.7Q195 -32.8 194.5 -31.5Q194 -30.3 193.2 -29.5Q191.2 -26.8 190.1 -25.6Q189.1 -24.4 187.4 -22.8Q185 -20.4 184 -19.4Q182.5 -18.1 182.5 -17.7Q182.5 -17 183.9 -15.7Q185.2 -14.3 188 -12" style="" fill="#dc171e" id="namepathdata"/></g></g>
              <g class="slogan"><g id="sloganDefaultGroup"/></g>
            </g>
            <g class="border">
            </g>
          </g>
          <defs id="defs">
            <mask xmlns="http://www.w3.org/2000/svg" id="mask">
                <rect id="showAll" fill="white" x="-248.48765432098764" y="-51.7" width="240.98765432098764" height="122"/>
                <rect id="hideNameBg" fill="black" x="0" y="0" width="0" height="0" stroke-width="2" stroke="black"/>
                <rect id="hideSloganBg" fill="black" x="0" y="0" width="0" height="0" stroke-width="2" stroke="black"/>
            <path d="M22 -29.6Q24.5 -33.1 26.3 -34.7Q28.2 -36.4 30.5 -36.4Q33.5 -36.4 36 -34.1Q38.4 -31.9 39 -28.7Q39.2 -27.4 39.2 -25.1L39.1 -20.9L39.5 -20.8L40 -22.2Q40.9 -24.6 41.6 -26.2Q42.4 -27.8 43.6 -29.5Q46 -33 48.1 -34.7Q50.2 -36.4 52.5 -36.4Q55.7 -36.4 58.5 -34.1Q61.3 -31.8 61.8 -28.7Q62.1 -27.4 62.1 -25.1Q62.1 -23.4 61.9 -19.4Q61.8 -14.9 61.8 -12.8Q61.8 -9 62.1 -7.3Q63.1 -3.8 63.1 -2.4Q63.1 -1.4 62.6 -0.7Q62.1 -0.1 60.9 0.4Q57.8 1.5 54.7 1.5Q50.5 1.5 49.9 -2.9Q49.3 -5.6 49.3 -10.8Q49.3 -12.2 49.5 -15.5Q49.6 -18.3 49.9 -20.6Q50.2 -23.1 50.2 -24.6Q50.2 -27.2 48.9 -27.2Q47.3 -27.2 43.9 -20Q42.4 -16.8 41.2 -13.3Q40.1 -9.8 39.7 -6.9Q39.6 -6.5 39.6 -5.7L39.7 -3.6Q39.7 -0.4 37.9 0.4Q36.3 1.2 35 1.3Q33.7 1.5 31.4 1.5Q29.7 1.5 29 0.9Q28.3 0.3 27.9 -1.2Q27.5 -2.7 27.5 -6.3Q27.5 -11.2 28 -15.5Q28.2 -17.4 28.3 -18.2Q28.4 -19 28.5 -20.8Q28.7 -22.5 28.7 -23.7Q28.7 -27.2 27.1 -27.2Q25.7 -27.2 22 -19.6Q20.5 -16.3 19.3 -12.8Q18.1 -9.3 17.7 -6.9Q17.6 -6.5 17.6 -5.7L17.7 -3.6Q17.7 -0.6 15.8 0.3Q13 1.5 8.6 1.5Q6.9 1.5 6.2 0.9Q5.5 0.3 5.2 -1.2Q5 -1.8 5 -3.3Q5 -4.8 5.2 -8.2Q5.3 -11.6 5.4 -13.8Q5.9 -22.2 5.9 -27.1Q5.9 -30.1 5.7 -31Q5.6 -31.3 5.6 -31.8Q5.6 -35.1 12.7 -35.5Q15.4 -35.6 16.6 -34Q17.8 -32.5 17.8 -30Q17.8 -27 17.6 -24.9Q17.3 -22.2 17.2 -20.7L17.6 -20.6Q19.4 -25.4 22 -29.6M77.7 1.5Q75.1 1.6 73.8 0.4Q72.5 -0.9 72.3 -2.9Q72 -4.7 72 -9.5Q72 -13.2 72.4 -20.3Q72.5 -23.5 72.9 -28.9L73 -31.2Q73.4 -37.8 73.4 -42Q73.4 -42.5 72.6 -42.9Q71.8 -43.3 70.8 -43.5Q70 -43.7 69.6 -43.8Q69.1 -44.2 69.1 -45.1Q69.1 -47.2 70.8 -48.3Q72.2 -49.2 75.2 -50.1Q78.3 -51 80.4 -51Q82.8 -51 84 -49.3Q85.1 -47.7 85.1 -45.2Q85.1 -38.3 84.5 -25.1Q84.3 -17.9 84.3 -15.2Q84.3 -9.3 84.8 -7.3Q84.9 -7.1 85.1 -5.8Q85.3 -4.6 85.3 -3.5Q85.3 -1.1 84.1 -0.2Q82.8 0.6 81.8 0.9Q80.8 1.3 77.7 1.5M96 -43.6Q96 -45 97 -46.9Q98.1 -48.9 99.7 -50.3Q101.3 -51.7 102.7 -51.7Q104.3 -51.7 106.4 -51.1Q108.4 -50.5 109.8 -49.5Q111.2 -48.5 111.2 -47.2Q111.2 -45.8 110.1 -43.9Q109 -42 107.4 -40.6Q105.8 -39.3 104.3 -39.3Q101.4 -39.3 98.7 -40.5Q96 -41.6 96 -43.6zM108.9 -21.2Q108.8 -19.7 108.6 -16.8L108.6 -14.6Q108.6 -12.3 108.6 -10.3Q108.7 -8.3 108.8 -7.3Q108.9 -6.7 109 -5.5Q109.1 -4.4 109.1 -3.6Q109.1 -1.4 107.6 -0.1Q106 1.1 101.7 1.5Q99.1 1.7 97.9 0.4Q96.7 -0.9 96.5 -3Q97.4 -16.2 97.4 -30.7Q97.4 -32.3 97.7 -33Q97.9 -33.6 98.9 -34.1Q99.8 -34.6 101.1 -34.7Q102.4 -34.8 104.3 -34.8Q107 -34.8 108.1 -33.2Q109.3 -31.7 109.3 -29.1Q109.1 -24.9 109 -22.8L108.9 -21.2M136.6 -29.2Q133.4 -29.2 131.8 -25.2Q130.3 -21.1 130.3 -15.7Q130.3 -11.1 132.5 -8.6Q134.7 -6 139.1 -6Q140.2 -6 141.6 -6.6Q143 -7.1 145 -8.1Q147.2 -9.1 147.7 -9.1Q148.3 -9.1 149.1 -7.9Q149.9 -6.6 149.9 -5Q149.9 -3.7 149 -2.7Q146.8 -0.6 142.8 0.6Q138.8 1.9 135 1.9Q127 1.9 122.3 -2.4Q117.7 -6.7 117.7 -14.6Q117.7 -19.7 119.3 -24Q120.8 -28.4 123.6 -31Q126.5 -33.7 130.2 -35Q133.8 -36.4 137.8 -36.4Q141.6 -36.4 144.7 -35.8Q147.8 -35.1 149.4 -34.4Q150.1 -34.1 150.1 -32.8Q150.1 -30.8 148.9 -28.7Q147.8 -26.6 146.5 -27Q140.1 -29.2 136.6 -29.2M170.8 -3.6Q170.8 -2.2 170.3 -1.2Q169.8 -0.2 168.8 0.3Q166 1.5 161.6 1.5Q159.9 1.5 159.2 0.9Q158.5 0.3 158.1 -1.2Q157.8 -2.4 157.8 -5.8Q157.8 -9.9 158.4 -20.3Q158.7 -24.3 158.9 -31.2Q159.2 -38.2 159.2 -42Q159.2 -46.4 159.8 -48.2Q160.3 -50 161.4 -50.3Q162.4 -50.6 165.7 -51Q168.3 -51.2 169.6 -49.5Q170.9 -47.9 170.9 -45.2L170.6 -35L170.4 -25.1L170.4 -19.8Q170.4 -10.2 170.6 -7.3Q170.8 -5 170.8 -3.6zM188 -12L189.6 -10.7Q192.5 -8.4 194.2 -6.7Q195.9 -5 195.9 -3.6Q195.9 -3.2 195.7 -2.8Q194.8 -1.1 193.1 0.1Q191.5 1.2 188.4 1.4Q186.3 1.5 183.4 -0.8Q180.5 -3.1 177.8 -6.3Q175.6 -8.9 173.6 -11.9Q171.6 -14.9 171.6 -16.1Q171.6 -16.8 179.3 -25.8Q184.5 -32 185.5 -33.5Q186.3 -34.6 188.6 -35Q190.9 -35.5 193 -35.5Q195 -35.5 195 -33.7Q195 -32.8 194.5 -31.5Q194 -30.3 193.2 -29.5Q191.2 -26.8 190.1 -25.6Q189.1 -24.4 187.4 -22.8Q185 -20.4 184 -19.4Q182.5 -18.1 182.5 -17.7Q182.5 -17 183.9 -15.7Q185.2 -14.3 188 -12" style="stroke-width: 0;" fill="#000000" id="masknamepathdata" stroke="#000000" paint-order="stroke" transform="matrix(1,0,0,1,-180,40)"/></mask>
          
          </defs>
        </g>
        </svg>